<?xml version="1.0" encoding="utf-8"?>
<!-- Generator: Adobe Illustrator 27.0.1, SVG Export Plug-In . SVG Version: 6.00 Build 0)  -->
<svg version="1.1" id="Layer_1" xmlns="http://www.w3.org/2000/svg" xmlns:xlink="http://www.w3.org/1999/xlink" x="0px" y="0px"
	 viewBox="0 0 48 48" style="enable-background:new 0 0 48 48;" xml:space="preserve">
<g>
	<path d="M18.7,5.4L36.3,23c0.2,0.2,0.3,0.3,0.4,0.5c0.1,0.2,0.1,0.4,0.1,0.5s0,0.4-0.1,0.5c-0.1,0.2-0.2,0.3-0.4,0.5L18.7,42.6
		c-0.4,0.4-0.8,0.6-1.4,0.6s-1-0.2-1.4-0.6c-0.4-0.4-0.6-0.9-0.6-1.4s0.2-1,0.6-1.4L31.7,24L15.9,8.2c-0.4-0.4-0.6-0.9-0.6-1.5
		c0-0.5,0.2-1,0.6-1.3c0.4-0.4,0.9-0.6,1.4-0.6C17.9,4.9,18.3,5,18.7,5.4z"/>
</g>
</svg>
