<?xml version="1.0" encoding="UTF-8"?><svg id="Layer_2" xmlns="http://www.w3.org/2000/svg" viewBox="0 0 505.81 167.31"><defs><style>.cls-1{fill:#fff;}.cls-2{fill:#e1e1e1;}.cls-3{fill:#00a3ac;}</style></defs><g id="Layer_1-2"><g><g><g><path class="cls-1" d="M213.43,44.86c0,5.04-.89,9.46-2.67,13.25-1.78,3.8-4.33,6.73-7.65,8.79-3.32,2.06-7.12,3.09-11.41,3.09s-8.03-1.02-11.36-3.06c-3.33-2.04-5.91-4.95-7.73-8.74-1.83-3.78-2.75-8.14-2.78-13.06v-2.53c0-5.04,.91-9.47,2.72-13.31,1.82-3.83,4.38-6.77,7.7-8.82,3.32-2.05,7.11-3.08,11.37-3.08s8.06,1.03,11.37,3.08c3.32,2.05,5.88,4.99,7.7,8.82,1.82,3.83,2.72,8.26,2.72,13.27v2.29Zm-10.69-2.32c0-5.37-.96-9.44-2.88-12.23-1.92-2.79-4.66-4.18-8.23-4.18s-6.27,1.38-8.19,4.13c-1.92,2.75-2.9,6.79-2.92,12.11v2.5c0,5.23,.96,9.28,2.88,12.16,1.92,2.88,4.69,4.32,8.3,4.32s6.26-1.39,8.16-4.17,2.86-6.83,2.88-12.15v-2.5Z"/><path class="cls-1" d="M229.78,31.26l.32,4.39c2.72-3.4,6.36-5.1,10.93-5.1,4.03,0,7.03,1.18,9,3.55,1.97,2.37,2.98,5.91,3.02,10.62v24.57h-10.16v-24.33c0-2.16-.47-3.72-1.41-4.69-.94-.97-2.5-1.46-4.68-1.46-2.86,0-5,1.22-6.43,3.66v26.82h-10.16V31.26h9.56Z"/><path class="cls-1" d="M259.17,50c0-5.93,1.33-10.65,3.99-14.17s6.3-5.27,10.92-5.27c3.7,0,6.76,1.38,9.18,4.15V15.3h10.2v54h-9.18l-.49-4.04c-2.53,3.16-5.79,4.75-9.77,4.75-4.48,0-8.07-1.76-10.78-5.29-2.71-3.53-4.06-8.43-4.06-14.71Zm10.16,.76c0,3.57,.62,6.3,1.86,8.2,1.24,1.9,3.05,2.85,5.41,2.85,3.14,0,5.36-1.33,6.64-3.98v-15.04c-1.27-2.65-3.46-3.98-6.57-3.98-4.9,0-7.35,3.98-7.35,11.94Z"/><path class="cls-1" d="M318.83,70c-5.58,0-10.12-1.71-13.62-5.13-3.5-3.42-5.26-7.98-5.26-13.68v-.98c0-3.82,.74-7.24,2.21-10.25,1.48-3.01,3.57-5.33,6.28-6.96,2.71-1.63,5.79-2.44,9.26-2.44,5.2,0,9.3,1.64,12.29,4.92,2.99,3.28,4.48,7.93,4.48,13.96v4.15h-24.22c.33,2.48,1.32,4.48,2.97,5.98,1.65,1.5,3.74,2.25,6.28,2.25,3.91,0,6.97-1.42,9.18-4.25l4.99,5.59c-1.52,2.16-3.59,3.84-6.19,5.04s-5.48,1.81-8.65,1.81Zm-1.16-31.25c-2.02,0-3.65,.68-4.9,2.05s-2.06,3.32-2.41,5.86h14.13v-.81c-.05-2.26-.66-4.01-1.83-5.24s-2.84-1.85-4.99-1.85Z"/><path class="cls-1" d="M360.95,69.3v-30.59h-5.66v-7.45h5.66v-3.23c0-4.27,1.22-7.58,3.67-9.93s5.88-3.53,10.28-3.53c1.41,0,3.13,.23,5.17,.7l-.11,7.88c-.84-.21-1.88-.32-3.09-.32-3.82,0-5.73,1.79-5.73,5.38v3.06h7.56v7.45h-7.56v30.59h-10.2Z"/><path class="cls-1" d="M382.39,49.93c0-3.77,.73-7.14,2.18-10.09s3.54-5.24,6.28-6.86,5.9-2.43,9.51-2.43c5.13,0,9.32,1.57,12.57,4.71,3.25,3.14,5.06,7.41,5.43,12.8l.07,2.6c0,5.84-1.63,10.52-4.89,14.04-3.26,3.53-7.63,5.29-13.11,5.29s-9.86-1.76-13.13-5.27-4.9-8.3-4.9-14.34v-.46Zm10.16,.72c0,3.62,.68,6.38,2.04,8.29,1.36,1.91,3.3,2.87,5.84,2.87s4.38-.94,5.77-2.83,2.07-4.91,2.07-9.07c0-3.54-.69-6.29-2.07-8.24-1.38-1.95-3.33-2.92-5.84-2.92s-4.41,.97-5.77,2.9c-1.36,1.94-2.04,4.94-2.04,9Z"/><path class="cls-1" d="M424.62,21.41c0-1.52,.51-2.78,1.53-3.76s2.41-1.48,4.17-1.48,3.12,.49,4.15,1.48,1.55,2.24,1.55,3.76-.52,2.81-1.56,3.8-2.42,1.48-4.13,1.48-3.09-.49-4.13-1.48-1.56-2.25-1.56-3.8Zm10.79,47.88h-10.2V31.26h10.2v38.04Z"/><path class="cls-1" d="M452.07,53.62c0-3.28,.4-5.9,1.2-7.85,.8-1.95,2.26-3.86,4.38-5.75s3.53-3.43,4.24-4.61,1.05-2.44,1.05-3.75c0-3.97-1.83-5.95-5.48-5.95-1.73,0-3.12,.53-4.17,1.6s-1.59,2.54-1.63,4.42h-10.2c.05-4.48,1.49-7.99,4.34-10.52,2.85-2.53,6.73-3.8,11.65-3.8s8.82,1.2,11.57,3.61,4.11,5.8,4.11,10.19c0,1.99-.45,3.88-1.34,5.65s-2.45,3.74-4.68,5.89l-2.85,2.71c-1.78,1.71-2.8,3.72-3.06,6.02l-.14,2.15h-9Zm-1.02,10.78c0-1.56,.53-2.86,1.6-3.87s2.43-1.52,4.1-1.52,3.03,.51,4.1,1.52,1.6,2.31,1.6,3.87-.52,2.82-1.56,3.82c-1.04,1-2.42,1.51-4.13,1.51s-3.09-.5-4.13-1.51c-1.04-1-1.56-2.28-1.56-3.82Z"/></g><path class="cls-3" d="M50.92,87.3c-6,0-11.14-2.14-15.41-6.41-4.27-4.27-6.41-9.41-6.41-15.41V21.82c0-6,2.14-11.14,6.41-15.41C39.78,2.14,44.92,0,50.92,0H116.39c6,0,11.14,2.14,15.41,6.41,4.27,4.27,6.41,9.41,6.41,15.41v43.65c0,6-2.14,11.14-6.41,15.41-4.27,4.27-9.41,6.41-15.41,6.41H50.92Zm0-64.11H116.39c2.64,0,5.12,.41,7.43,1.23,2.32,.82,4.39,2,6.21,3.55v-6.14c0-3.82-1.32-7.05-3.96-9.68-2.64-2.64-5.87-3.96-9.68-3.96H50.92c-3.82,0-7.05,1.32-9.68,3.96-2.64,2.64-3.96,5.87-3.96,9.68v6.14c1.82-1.55,3.89-2.73,6.21-3.55,2.32-.82,4.8-1.23,7.43-1.23Zm-13.23,18.55l65.06,15.69c.64,.18,1.3,.2,1.98,.07,.68-.14,1.25-.43,1.71-.89l21.82-18.28c-1.18-2.09-2.82-3.77-4.91-5.05-2.09-1.27-4.41-1.91-6.96-1.91H50.92c-3.18,0-6,.98-8.46,2.93-2.46,1.96-4.05,4.43-4.77,7.43Z"/></g><g><path class="cls-2" d="M11.13,155.33l7.43-21.45h3.75l-9.64,26h-3.04L0,133.88H3.73l7.39,21.45Z"/><path class="cls-2" d="M23.57,150.04c0-1.89,.37-3.6,1.12-5.11,.74-1.51,1.78-2.68,3.11-3.5,1.33-.82,2.84-1.23,4.54-1.23,2.63,0,4.76,.91,6.38,2.73,1.63,1.82,2.44,4.25,2.44,7.27v.23c0,1.88-.36,3.57-1.08,5.06-.72,1.49-1.75,2.66-3.09,3.49-1.34,.83-2.88,1.25-4.62,1.25-2.62,0-4.74-.91-6.37-2.73-1.62-1.82-2.44-4.23-2.44-7.23v-.23Zm3.32,.39c0,2.14,.5,3.86,1.49,5.16,.99,1.3,2.32,1.95,3.99,1.95s3.01-.66,4-1.97c.99-1.32,1.48-3.16,1.48-5.53,0-2.12-.5-3.84-1.51-5.15-1.01-1.32-2.34-1.97-4.01-1.97s-2.95,.65-3.95,1.95-1.5,3.16-1.5,5.57Z"/><path class="cls-2" d="M53.06,157.54c1.18,0,2.21-.36,3.09-1.07,.88-.71,1.37-1.61,1.46-2.68h3.13c-.06,1.11-.44,2.16-1.14,3.16-.7,1-1.64,1.8-2.81,2.39-1.17,.6-2.41,.89-3.72,.89-2.63,0-4.72-.88-6.28-2.63s-2.33-4.16-2.33-7.21v-.55c0-1.88,.35-3.55,1.04-5.02,.69-1.46,1.68-2.6,2.97-3.41,1.29-.81,2.82-1.21,4.58-1.21,2.17,0,3.97,.65,5.4,1.95,1.43,1.3,2.2,2.98,2.29,5.05h-3.13c-.1-1.25-.57-2.28-1.42-3.08-.85-.8-1.9-1.21-3.15-1.21-1.68,0-2.98,.6-3.9,1.81-.92,1.21-1.38,2.96-1.38,5.24v.63c0,2.23,.46,3.94,1.38,5.14,.92,1.2,2.23,1.8,3.93,1.8Z"/><path class="cls-2" d="M72.47,160.24c-2.62,0-4.75-.86-6.39-2.58-1.64-1.72-2.46-4.02-2.46-6.9v-.61c0-1.92,.37-3.63,1.1-5.13,.73-1.51,1.76-2.69,3.07-3.54,1.32-.85,2.74-1.28,4.28-1.28,2.51,0,4.46,.83,5.86,2.48,1.39,1.66,2.09,4.02,2.09,7.11v1.38h-13.09c.05,1.91,.6,3.44,1.67,4.62,1.07,1.17,2.42,1.76,4.06,1.76,1.17,0,2.15-.24,2.96-.71,.81-.48,1.52-1.11,2.12-1.89l2.02,1.57c-1.62,2.49-4.05,3.73-7.29,3.73Zm4.98-22.9v.18h-2.73s-2.68-3.03-2.68-3.03l-2.66,3.04h-2.73v-.22l4.39-4.85h2l4.41,4.88Zm-5.39,5.58c-1.33,0-2.45,.49-3.36,1.46-.91,.97-1.46,2.33-1.68,4.08h9.68v-.25c-.1-1.68-.55-2.98-1.36-3.9-.81-.92-1.91-1.38-3.29-1.38Z"/><path class="cls-2" d="M96.01,140.56l.11,2.43c1.48-1.86,3.4-2.79,5.79-2.79,4.08,0,6.14,2.3,6.18,6.91v12.77h-3.3v-12.79c-.01-1.39-.33-2.42-.96-3.09-.62-.67-1.6-1-2.92-1-1.07,0-2.01,.29-2.82,.86-.81,.57-1.44,1.32-1.89,2.25v13.77h-3.3v-19.32h3.12Z"/><path class="cls-2" d="M112.19,150.04c0-1.89,.37-3.6,1.12-5.11,.74-1.51,1.78-2.68,3.11-3.5,1.33-.82,2.84-1.23,4.54-1.23,2.63,0,4.76,.91,6.38,2.73,1.63,1.82,2.44,4.25,2.44,7.27v.23c0,1.88-.36,3.57-1.08,5.06-.72,1.49-1.75,2.66-3.09,3.49-1.34,.83-2.88,1.25-4.62,1.25-2.62,0-4.74-.91-6.37-2.73-1.62-1.82-2.44-4.23-2.44-7.23v-.23Zm3.32,.39c0,2.14,.5,3.86,1.49,5.16,.99,1.3,2.32,1.95,3.99,1.95s3.01-.66,4-1.97c.99-1.32,1.48-3.16,1.48-5.53,0-2.12-.5-3.84-1.51-5.15-1.01-1.32-2.34-1.97-4.01-1.97s-2.95,.65-3.95,1.95-1.5,3.16-1.5,5.57Z"/><path class="cls-2" d="M150.73,157.54c1.18,0,2.21-.36,3.09-1.07,.88-.71,1.37-1.61,1.46-2.68h3.13c-.06,1.11-.44,2.16-1.14,3.16-.7,1-1.64,1.8-2.81,2.39-1.17,.6-2.41,.89-3.72,.89-2.63,0-4.72-.88-6.28-2.63s-2.33-4.16-2.33-7.21v-.55c0-1.88,.35-3.55,1.04-5.02,.69-1.46,1.68-2.6,2.97-3.41,1.29-.81,2.82-1.21,4.58-1.21,2.17,0,3.97,.65,5.4,1.95,1.43,1.3,2.2,2.98,2.29,5.05h-3.13c-.1-1.25-.57-2.28-1.42-3.08-.85-.8-1.9-1.21-3.15-1.21-1.68,0-2.98,.6-3.9,1.81-.92,1.21-1.38,2.96-1.38,5.24v.63c0,2.23,.46,3.94,1.38,5.14,.92,1.2,2.23,1.8,3.93,1.8Z"/><path class="cls-2" d="M161.25,150.04c0-1.89,.37-3.6,1.12-5.11,.74-1.51,1.78-2.68,3.11-3.5,1.33-.82,2.84-1.23,4.54-1.23,2.63,0,4.76,.91,6.38,2.73,1.63,1.82,2.44,4.25,2.44,7.27v.23c0,1.88-.36,3.57-1.08,5.06-.72,1.49-1.75,2.66-3.09,3.49-1.34,.83-2.88,1.25-4.62,1.25-2.62,0-4.74-.91-6.37-2.73-1.62-1.82-2.44-4.23-2.44-7.23v-.23Zm3.32,.39c0,2.14,.5,3.86,1.49,5.16,.99,1.3,2.32,1.95,3.99,1.95s3.01-.66,4-1.97c.99-1.32,1.48-3.16,1.48-5.53,0-2.12-.5-3.84-1.51-5.15-1.01-1.32-2.34-1.97-4.01-1.97s-2.95,.65-3.95,1.95-1.5,3.16-1.5,5.57Z"/><path class="cls-2" d="M186.11,140.56l.11,2.43c1.48-1.86,3.4-2.79,5.79-2.79,4.08,0,6.14,2.3,6.18,6.91v12.77h-3.3v-12.79c-.01-1.39-.33-2.42-.96-3.09-.62-.67-1.6-1-2.92-1-1.07,0-2.01,.29-2.82,.86-.81,.57-1.44,1.32-1.89,2.25v13.77h-3.3v-19.32h3.12Z"/><path class="cls-2" d="M207.65,135.88v4.68h3.61v2.55h-3.61v12c0,.77,.16,1.36,.48,1.74,.32,.39,.87,.58,1.64,.58,.38,0,.9-.07,1.57-.21v2.66c-.87,.24-1.71,.35-2.54,.35-1.48,0-2.59-.45-3.34-1.34-.75-.89-1.12-2.16-1.12-3.8v-11.98h-3.52v-2.55h3.52v-4.68h3.3Z"/><path class="cls-2" d="M224.46,143.52c-.5-.08-1.04-.12-1.62-.12-2.17,0-3.64,.92-4.41,2.77v13.72h-3.3v-19.32h3.21l.05,2.23c1.08-1.73,2.62-2.59,4.61-2.59,.64,0,1.13,.08,1.46,.25v3.07Z"/><path class="cls-2" d="M226.26,150.04c0-1.89,.37-3.6,1.12-5.11,.74-1.51,1.78-2.68,3.11-3.5,1.33-.82,2.84-1.23,4.55-1.23,2.63,0,4.76,.91,6.38,2.73,1.62,1.82,2.44,4.25,2.44,7.27v.23c0,1.88-.36,3.57-1.08,5.06-.72,1.49-1.75,2.66-3.09,3.49-1.34,.83-2.88,1.25-4.62,1.25-2.62,0-4.74-.91-6.37-2.73-1.63-1.82-2.44-4.23-2.44-7.23v-.23Zm3.32,.39c0,2.14,.5,3.86,1.49,5.16s2.32,1.95,3.99,1.95,3.01-.66,4-1.97c.99-1.32,1.48-3.16,1.48-5.53,0-2.12-.5-3.84-1.51-5.15-1.01-1.32-2.34-1.97-4.01-1.97s-2.95,.65-3.95,1.95-1.5,3.16-1.5,5.57Z"/><path class="cls-2" d="M251.58,159.88h-3.3v-27.43h3.3v27.43Z"/><path class="cls-2" d="M264.89,160.24c-2.62,0-4.75-.86-6.39-2.58-1.64-1.72-2.46-4.02-2.46-6.9v-.61c0-1.92,.37-3.63,1.1-5.13,.73-1.51,1.76-2.69,3.07-3.54,1.32-.85,2.74-1.28,4.28-1.28,2.51,0,4.46,.83,5.86,2.48,1.39,1.66,2.09,4.02,2.09,7.11v1.38h-13.09c.05,1.91,.6,3.44,1.67,4.62s2.42,1.76,4.06,1.76c1.17,0,2.16-.24,2.96-.71s1.52-1.11,2.13-1.89l2.02,1.57c-1.62,2.49-4.05,3.73-7.29,3.73Zm-.41-17.32c-1.33,0-2.45,.49-3.36,1.46-.91,.97-1.46,2.33-1.68,4.08h9.68v-.25c-.1-1.68-.55-2.98-1.36-3.9-.81-.92-1.91-1.38-3.29-1.38Z"/><path class="cls-2" d="M284.5,150.06c0-2.96,.7-5.35,2.11-7.15,1.41-1.8,3.24-2.71,5.52-2.71s4.05,.77,5.38,2.32v-10.07h3.3v27.43h-3.04l-.16-2.07c-1.32,1.62-3.16,2.43-5.52,2.43s-4.06-.92-5.47-2.75c-1.41-1.83-2.12-4.23-2.12-7.18v-.25Zm3.3,.38c0,2.19,.45,3.91,1.36,5.14,.9,1.24,2.15,1.86,3.75,1.86,2.1,0,3.62-.94,4.59-2.82v-8.88c-.99-1.82-2.51-2.73-4.55-2.73-1.62,0-2.88,.62-3.79,1.88-.91,1.25-1.36,3.1-1.36,5.55Z"/><path class="cls-2" d="M317.86,159.88c-.19-.38-.35-1.06-.46-2.04-1.54,1.6-3.37,2.39-5.5,2.39-1.9,0-3.47-.54-4.69-1.62-1.22-1.08-1.83-2.44-1.83-4.1,0-2.01,.77-3.57,2.29-4.69,1.53-1.11,3.68-1.67,6.46-1.67h3.21v-1.52c0-1.15-.34-2.07-1.04-2.76-.69-.68-1.71-1.03-3.05-1.03-1.18,0-2.17,.3-2.96,.89-.8,.6-1.2,1.32-1.2,2.16h-3.32c0-.96,.34-1.9,1.03-2.8,.68-.9,1.61-1.61,2.79-2.13s2.46-.79,3.87-.79c2.23,0,3.97,.56,5.23,1.67,1.26,1.11,1.92,2.65,1.96,4.6v8.89c0,1.77,.23,3.19,.68,4.23v.29h-3.46Zm-5.48-2.52c1.04,0,2.02-.27,2.95-.8s1.6-1.23,2.02-2.09v-3.96h-2.59c-4.05,0-6.07,1.18-6.07,3.55,0,1.04,.34,1.85,1.04,2.43s1.58,.88,2.66,.88Z"/><path class="cls-2" d="M337.08,154.76c0-.89-.34-1.59-1.01-2.08-.67-.49-1.84-.92-3.52-1.28-1.67-.36-3-.79-3.98-1.29-.98-.5-1.71-1.1-2.18-1.79-.47-.69-.71-1.51-.71-2.46,0-1.58,.67-2.92,2.01-4.02,1.34-1.1,3.05-1.64,5.13-1.64,2.19,0,3.97,.57,5.33,1.7,1.36,1.13,2.04,2.58,2.04,4.34h-3.32c0-.9-.38-1.68-1.15-2.34s-1.74-.98-2.9-.98-2.14,.26-2.82,.79-1.02,1.21-1.02,2.05c0,.8,.32,1.4,.95,1.8,.63,.4,1.77,.79,3.42,1.16,1.65,.37,2.99,.81,4.01,1.32,1.02,.51,1.78,1.13,2.28,1.85,.49,.72,.74,1.6,.74,2.63,0,1.73-.69,3.11-2.07,4.15-1.38,1.04-3.17,1.56-5.38,1.56-1.55,0-2.92-.27-4.11-.82-1.19-.55-2.12-1.31-2.79-2.29-.67-.98-1.01-2.04-1.01-3.19h3.3c.06,1.11,.5,1.99,1.33,2.63s1.92,.97,3.28,.97c1.25,0,2.25-.25,3.01-.76,.76-.51,1.13-1.18,1.13-2.03Z"/><path class="cls-2" d="M352.94,150.06c0-2.96,.7-5.35,2.11-7.15,1.41-1.8,3.24-2.71,5.52-2.71s4.05,.77,5.38,2.32v-10.07h3.3v27.43h-3.04l-.16-2.07c-1.32,1.62-3.16,2.43-5.52,2.43s-4.06-.92-5.47-2.75c-1.41-1.83-2.12-4.23-2.12-7.18v-.25Zm3.3,.38c0,2.19,.45,3.91,1.36,5.14,.9,1.24,2.15,1.86,3.75,1.86,2.1,0,3.62-.94,4.59-2.82v-8.88c-.99-1.82-2.51-2.73-4.55-2.73-1.62,0-2.88,.62-3.79,1.88-.91,1.25-1.36,3.1-1.36,5.55Z"/><path class="cls-2" d="M382.39,160.24c-2.62,0-4.75-.86-6.39-2.58-1.64-1.72-2.46-4.02-2.46-6.9v-.61c0-1.92,.37-3.63,1.1-5.13,.73-1.51,1.76-2.69,3.07-3.54,1.32-.85,2.74-1.28,4.28-1.28,2.51,0,4.46,.83,5.86,2.48,1.39,1.66,2.09,4.02,2.09,7.11v1.38h-13.09c.05,1.91,.6,3.44,1.67,4.62s2.42,1.76,4.06,1.76c1.17,0,2.16-.24,2.96-.71s1.52-1.11,2.13-1.89l2.02,1.57c-1.62,2.49-4.05,3.73-7.29,3.73Zm-.41-17.32c-1.33,0-2.45,.49-3.36,1.46-.91,.97-1.46,2.33-1.68,4.08h9.68v-.25c-.1-1.68-.55-2.98-1.36-3.9-.81-.92-1.91-1.38-3.29-1.38Z"/><path class="cls-2" d="M405,154.76c0-.89-.34-1.59-1.01-2.08-.67-.49-1.84-.92-3.52-1.28-1.67-.36-3-.79-3.98-1.29-.98-.5-1.71-1.1-2.18-1.79-.47-.69-.71-1.51-.71-2.46,0-1.58,.67-2.92,2.01-4.02,1.34-1.1,3.05-1.64,5.13-1.64,2.19,0,3.97,.57,5.33,1.7,1.36,1.13,2.04,2.58,2.04,4.34h-3.32c0-.9-.38-1.68-1.15-2.34s-1.74-.98-2.9-.98-2.14,.26-2.82,.79-1.02,1.21-1.02,2.05c0,.8,.32,1.4,.95,1.8,.63,.4,1.77,.79,3.42,1.16,1.65,.37,2.99,.81,4.01,1.32,1.02,.51,1.78,1.13,2.28,1.85,.49,.72,.74,1.6,.74,2.63,0,1.73-.69,3.11-2.07,4.15-1.38,1.04-3.17,1.56-5.38,1.56-1.55,0-2.92-.27-4.11-.82-1.19-.55-2.12-1.31-2.79-2.29-.67-.98-1.01-2.04-1.01-3.19h3.3c.06,1.11,.5,1.99,1.33,2.63s1.92,.97,3.28,.97c1.25,0,2.25-.25,3.01-.76,.76-.51,1.13-1.18,1.13-2.03Z"/><path class="cls-2" d="M428.93,150.44c0,2.94-.67,5.31-2.02,7.11s-3.17,2.7-5.46,2.7-4.19-.74-5.54-2.23v9.3h-3.3v-26.75h3.02l.16,2.14c1.34-1.67,3.21-2.5,5.61-2.5s4.16,.88,5.51,2.63c1.35,1.75,2.03,4.19,2.03,7.3v.3Zm-3.3-.38c0-2.18-.46-3.9-1.39-5.16s-2.2-1.89-3.82-1.89c-2,0-3.5,.89-4.5,2.66v9.23c.99,1.76,2.5,2.64,4.54,2.64,1.58,0,2.84-.63,3.78-1.88,.93-1.26,1.4-3.12,1.4-5.6Z"/><path class="cls-2" d="M441.14,160.24c-2.62,0-4.75-.86-6.39-2.58-1.64-1.72-2.46-4.02-2.46-6.9v-.61c0-1.92,.37-3.63,1.1-5.13,.73-1.51,1.76-2.69,3.07-3.54,1.32-.85,2.74-1.28,4.28-1.28,2.51,0,4.46,.83,5.86,2.48,1.39,1.66,2.09,4.02,2.09,7.11v1.38h-13.09c.05,1.91,.6,3.44,1.67,4.62s2.42,1.76,4.06,1.76c1.17,0,2.16-.24,2.96-.71s1.52-1.11,2.13-1.89l2.02,1.57c-1.62,2.49-4.05,3.73-7.29,3.73Zm-.41-17.32c-1.33,0-2.45,.49-3.36,1.46-.91,.97-1.46,2.33-1.68,4.08h9.68v-.25c-.1-1.68-.55-2.98-1.36-3.9-.81-.92-1.91-1.38-3.29-1.38Z"/><path class="cls-2" d="M463.75,154.76c0-.89-.34-1.59-1.01-2.08-.67-.49-1.84-.92-3.52-1.28-1.67-.36-3-.79-3.98-1.29-.98-.5-1.71-1.1-2.18-1.79-.47-.69-.71-1.51-.71-2.46,0-1.58,.67-2.92,2.01-4.02,1.34-1.1,3.05-1.64,5.13-1.64,2.19,0,3.97,.57,5.33,1.7,1.36,1.13,2.04,2.58,2.04,4.34h-3.32c0-.9-.38-1.68-1.15-2.34s-1.74-.98-2.9-.98-2.14,.26-2.82,.79-1.02,1.21-1.02,2.05c0,.8,.32,1.4,.95,1.8,.63,.4,1.77,.79,3.42,1.16,1.65,.37,2.99,.81,4.01,1.32,1.02,.51,1.78,1.13,2.28,1.85,.49,.72,.74,1.6,.74,2.63,0,1.73-.69,3.11-2.07,4.15-1.38,1.04-3.17,1.56-5.38,1.56-1.55,0-2.92-.27-4.11-.82-1.19-.55-2.12-1.31-2.79-2.29-.67-.98-1.01-2.04-1.01-3.19h3.3c.06,1.11,.5,1.99,1.33,2.63s1.92,.97,3.28,.97c1.25,0,2.25-.25,3.01-.76,.76-.51,1.13-1.18,1.13-2.03Z"/><path class="cls-2" d="M483.29,159.88c-.19-.38-.35-1.06-.46-2.04-1.54,1.6-3.37,2.39-5.5,2.39-1.9,0-3.47-.54-4.69-1.62-1.22-1.08-1.83-2.44-1.83-4.1,0-2.01,.77-3.57,2.29-4.69,1.53-1.11,3.68-1.67,6.46-1.67h3.21v-1.52c0-1.15-.34-2.07-1.04-2.76-.69-.68-1.71-1.03-3.05-1.03-1.18,0-2.17,.3-2.96,.89-.8,.6-1.2,1.32-1.2,2.16h-3.32c0-.96,.34-1.9,1.03-2.8,.68-.9,1.61-1.61,2.79-2.13s2.46-.79,3.87-.79c2.23,0,3.97,.56,5.23,1.67,1.26,1.11,1.92,2.65,1.96,4.6v8.89c0,1.77,.23,3.19,.68,4.23v.29h-3.46Zm-5.48-2.52c1.04,0,2.02-.27,2.95-.8s1.6-1.23,2.02-2.09v-3.96h-2.59c-4.05,0-6.07,1.18-6.07,3.55,0,1.04,.34,1.85,1.04,2.43s1.58,.88,2.66,.88Z"/><path class="cls-2" d="M502.51,154.76c0-.89-.34-1.59-1.01-2.08-.67-.49-1.84-.92-3.52-1.28-1.67-.36-3-.79-3.98-1.29-.98-.5-1.71-1.1-2.18-1.79-.47-.69-.71-1.51-.71-2.46,0-1.58,.67-2.92,2.01-4.02,1.34-1.1,3.05-1.64,5.13-1.64,2.19,0,3.97,.57,5.33,1.7,1.36,1.13,2.04,2.58,2.04,4.34h-3.32c0-.9-.38-1.68-1.15-2.34s-1.74-.98-2.9-.98-2.14,.26-2.82,.79-1.02,1.21-1.02,2.05c0,.8,.32,1.4,.95,1.8,.63,.4,1.77,.79,3.42,1.16,1.65,.37,2.99,.81,4.01,1.32,1.02,.51,1.78,1.13,2.28,1.85,.49,.72,.74,1.6,.74,2.63,0,1.73-.69,3.11-2.07,4.15-1.38,1.04-3.17,1.56-5.38,1.56-1.55,0-2.92-.27-4.11-.82-1.19-.55-2.12-1.31-2.79-2.29-.67-.98-1.01-2.04-1.01-3.19h3.3c.06,1.11,.5,1.99,1.33,2.63s1.92,.97,3.28,.97c1.25,0,2.25-.25,3.01-.76,.76-.51,1.13-1.18,1.13-2.03Z"/></g></g></g></svg>